<svg width="492" height="492" viewBox="0 0 492 492" fill="none" xmlns="http://www.w3.org/2000/svg">
<path d="M296.998 437.515H293.073L281.269 408.696H285.244L295.061 432.547L304.904 408.696H309.077L296.998 437.515Z" fill="#D91E25"/>
<path d="M296.998 437.515H293.073L281.269 408.696H285.244L295.061 432.547L304.904 408.696H309.077L296.998 437.515Z" stroke="#D91E25" stroke-width="0.666667" stroke-miterlimit="10"/>
<path d="M321.912 434.435C325.041 434.584 327.673 433.54 329.858 431.205C332.094 428.871 333.137 426.188 333.088 423.059C332.988 420.079 331.897 417.545 329.858 415.409C327.822 413.273 325.389 412.231 322.506 412.231C319.477 412.181 316.944 413.273 314.808 415.409C312.673 417.545 311.629 420.079 311.58 423.109C311.529 426.091 312.473 428.722 314.509 430.957C316.546 433.193 318.981 434.335 321.912 434.435ZM332.393 433.939C329.462 436.869 325.934 438.309 321.861 438.16C317.937 438.061 314.56 436.571 311.828 433.69C309.096 430.809 307.754 427.381 307.754 423.408C307.754 419.284 309.245 415.708 312.174 412.777C315.106 409.796 318.633 408.356 322.706 408.505C326.63 408.655 330.008 410.144 332.741 413.075C335.472 415.956 336.862 419.384 336.862 423.357C336.862 427.431 335.373 430.957 332.393 433.939Z" fill="#D91E25"/>
<path d="M321.912 434.435C325.041 434.584 327.673 433.54 329.858 431.205C332.094 428.871 333.137 426.188 333.088 423.059C332.988 420.079 331.897 417.545 329.858 415.409C327.822 413.273 325.389 412.231 322.506 412.231C319.477 412.181 316.944 413.273 314.808 415.409C312.673 417.545 311.629 420.079 311.58 423.109C311.529 426.091 312.473 428.722 314.509 430.957C316.546 433.193 318.981 434.335 321.912 434.435ZM332.393 433.939C329.462 436.869 325.934 438.309 321.861 438.16C317.937 438.061 314.56 436.571 311.828 433.69C309.096 430.809 307.754 427.381 307.754 423.408C307.754 419.284 309.245 415.708 312.174 412.777C315.106 409.796 318.633 408.356 322.706 408.505C326.63 408.655 330.008 410.144 332.741 413.075C335.472 415.956 336.862 419.384 336.862 423.357C336.862 427.431 335.373 430.957 332.393 433.939Z" stroke="#D91E25" stroke-width="0.666667" stroke-miterlimit="10"/>
<path d="M361.6 430.907C363.636 428.672 364.629 426.091 364.58 423.059C364.53 420.079 363.438 417.545 361.301 415.409C359.216 413.273 356.681 412.181 353.652 412.181C350.772 412.181 348.288 413.224 346.25 415.36C344.214 417.496 343.121 420.029 343.072 423.009C342.972 426.139 344.014 428.871 346.25 431.205C348.486 433.491 351.118 434.584 354.198 434.435C357.129 434.285 359.564 433.144 361.6 430.907ZM339.246 423.109V399.216H342.972V413.523C345.754 410.293 349.232 408.655 353.402 408.505C357.477 408.356 361.004 409.747 363.934 412.728C366.914 415.708 368.404 419.235 368.404 423.357C368.404 427.332 367.014 430.76 364.282 433.64C361.55 436.52 358.172 438.012 354.248 438.16C350.174 438.309 346.648 436.869 343.618 433.889C340.588 430.907 339.148 427.381 339.246 423.308V423.109Z" fill="#D91E25"/>
<path d="M361.6 430.907C363.636 428.672 364.629 426.091 364.58 423.059C364.53 420.079 363.438 417.545 361.301 415.409C359.216 413.273 356.681 412.181 353.652 412.181C350.772 412.181 348.288 413.224 346.25 415.36C344.214 417.496 343.121 420.029 343.072 423.009C342.972 426.139 344.014 428.871 346.25 431.205C348.486 433.491 351.118 434.584 354.198 434.435C357.129 434.285 359.564 433.144 361.6 430.907ZM339.246 423.109V399.216H342.972V413.523C345.754 410.293 349.232 408.655 353.402 408.505C357.477 408.356 361.004 409.747 363.934 412.728C366.914 415.708 368.404 419.235 368.404 423.357C368.404 427.332 367.014 430.76 364.282 433.64C361.55 436.52 358.172 438.012 354.248 438.16C350.174 438.309 346.648 436.869 343.618 433.889C340.588 430.907 339.148 427.381 339.246 423.308V423.109Z" stroke="#D91E25" stroke-width="0.666667" stroke-miterlimit="10"/>
<path d="M123.58 397.908C122.193 397.908 121.26 398.75 121.26 400.004C121.26 401.272 122.214 402.157 123.58 402.157C124.892 402.157 125.844 401.252 125.844 400.004C125.844 398.769 124.913 397.908 123.58 397.908Z" fill="#100F0D"/>
<path d="M123.58 397.908C122.193 397.908 121.26 398.75 121.26 400.004C121.26 401.272 122.214 402.157 123.58 402.157C124.892 402.157 125.844 401.252 125.844 400.004C125.844 398.769 124.913 397.908 123.58 397.908Z" stroke="#100F0D" stroke-width="0.666667" stroke-miterlimit="10"/>
<path d="M121.822 437.773H125.284V408.229H121.822V437.773Z" fill="#100F0D"/>
<path d="M121.822 437.773H125.284V408.229H121.822V437.773Z" stroke="#100F0D" stroke-width="0.666667" stroke-miterlimit="10"/>
<path d="M144.275 407.668C139.889 407.668 136.606 409.497 134.705 412.977V408.229H131.299V437.773H134.761V421.319C134.761 414.857 138.232 410.683 143.602 410.683C148.687 410.683 150.761 413 150.761 418.683V437.773H154.223V418.347C154.223 411.16 150.969 407.668 144.275 407.668Z" fill="#100F0D"/>
<path d="M144.275 407.668C139.889 407.668 136.606 409.497 134.705 412.977V408.229H131.299V437.773H134.761V421.319C134.761 414.857 138.232 410.683 143.602 410.683C148.687 410.683 150.761 413 150.761 418.683V437.773H154.223V418.347C154.223 411.16 150.969 407.668 144.275 407.668Z" stroke="#100F0D" stroke-width="0.666667" stroke-miterlimit="10"/>
<path d="M173.987 421.751L167.76 420.797C164.635 420.34 163.36 419.077 163.36 416.44C163.36 412.32 165.654 410.402 170.576 410.402C177.01 410.402 177.819 413.647 178.072 416.688L178.095 416.964H181.309V416.664C181.309 410.695 177.698 407.668 170.576 407.668C163.491 407.668 159.898 410.657 159.898 416.552C159.898 420.809 162.209 423.047 167.389 423.803L173.614 424.756C176.991 425.291 178.632 426.863 178.632 429.564C178.632 433.625 176.015 435.6 170.633 435.6C163.862 435.6 162.651 432.363 162.35 428.864L162.326 428.589H159.113V428.889C159.113 435.157 162.969 438.335 170.576 438.335C180.097 438.335 182.095 433.504 182.095 429.452C182.095 425.049 179.441 422.531 173.987 421.751Z" fill="#100F0D"/>
<path d="M173.987 421.751L167.76 420.797C164.635 420.34 163.36 419.077 163.36 416.44C163.36 412.32 165.654 410.402 170.576 410.402C177.01 410.402 177.819 413.647 178.072 416.688L178.095 416.964H181.309V416.664C181.309 410.695 177.698 407.668 170.576 407.668C163.491 407.668 159.898 410.657 159.898 416.552C159.898 420.809 162.209 423.047 167.389 423.803L173.614 424.756C176.991 425.291 178.632 426.863 178.632 429.564C178.632 433.625 176.015 435.6 170.633 435.6C163.862 435.6 162.651 432.363 162.35 428.864L162.326 428.589H159.113V428.889C159.113 435.157 162.969 438.335 170.576 438.335C180.097 438.335 182.095 433.504 182.095 429.452C182.095 425.049 179.441 422.531 173.987 421.751Z" stroke="#100F0D" stroke-width="0.666667" stroke-miterlimit="10"/>
<path d="M192.467 399.479H189.004V408.229H183.789V411.075H189.004V431.639C189.004 436.334 190.873 437.998 196.148 437.998C197.072 437.998 198.658 437.883 199.659 437.772L199.927 437.743V435.024L196.54 435.208C193.267 435.208 192.467 434.519 192.467 431.696V411.075H199.927V408.229H192.467V399.479Z" fill="#100F0D"/>
<path d="M192.467 399.479H189.004V408.229H183.789V411.075H189.004V431.639C189.004 436.334 190.873 437.998 196.148 437.998C197.072 437.998 198.658 437.883 199.659 437.772L199.927 437.743V435.024L196.54 435.208C193.267 435.208 192.467 434.519 192.467 431.696V411.075H199.927V408.229H192.467V399.479Z" stroke="#100F0D" stroke-width="0.666667" stroke-miterlimit="10"/>
<path d="M223.663 421.715V424.459C223.663 431.193 219.951 435.544 214.204 435.544C209.333 435.544 206.54 433.221 206.54 429.172C206.54 425.991 208.986 424.096 213.615 423.693L217.985 423.302C220.685 423.105 222.589 422.573 223.663 421.715ZM227.125 430.069V417.112C227.125 412.803 225.176 407.668 215.887 407.668C206.598 407.668 204.649 412.803 204.649 417.112V417.412H207.923L207.942 417.132C208.261 412.617 210.785 410.514 215.887 410.514C221.047 410.514 223.663 412.733 223.663 417.112C223.663 419.207 222.836 420.214 217.936 420.627L213.003 421.075C204.799 421.741 203.078 425.907 203.078 429.284C203.078 434.951 206.986 438.335 213.532 438.335C218.385 438.335 221.955 436.385 223.743 432.807C223.837 435.444 224.225 436.473 225.004 437.64L225.093 437.773H228.248L227.981 437.32C227.437 436.393 227.125 433.751 227.125 430.069Z" fill="#100F0D"/>
<path d="M223.663 421.715V424.459C223.663 431.193 219.951 435.544 214.204 435.544C209.333 435.544 206.54 433.221 206.54 429.172C206.54 425.991 208.986 424.096 213.615 423.693L217.985 423.302C220.685 423.105 222.589 422.573 223.663 421.715ZM227.125 430.069V417.112C227.125 412.803 225.176 407.668 215.887 407.668C206.598 407.668 204.649 412.803 204.649 417.112V417.412H207.923L207.942 417.132C208.261 412.617 210.785 410.514 215.887 410.514C221.047 410.514 223.663 412.733 223.663 417.112C223.663 419.207 222.836 420.214 217.936 420.627L213.003 421.075C204.799 421.741 203.078 425.907 203.078 429.284C203.078 434.951 206.986 438.335 213.532 438.335C218.385 438.335 221.955 436.385 223.743 432.807C223.837 435.444 224.225 436.473 225.004 437.64L225.093 437.773H228.248L227.981 437.32C227.437 436.393 227.125 433.751 227.125 430.069Z" stroke="#100F0D" stroke-width="0.666667" stroke-miterlimit="10"/>
<path d="M246.115 407.668C241.728 407.668 238.445 409.497 236.544 412.976V408.229H233.139V437.773H236.6V421.319C236.6 414.857 240.071 410.683 245.441 410.683C250.525 410.683 252.6 413 252.6 418.683V437.773H256.063V418.347C256.063 411.16 252.808 407.668 246.115 407.668Z" fill="#100F0D"/>
<path d="M246.115 407.668C241.728 407.668 238.445 409.497 236.544 412.976V408.229H233.139V437.773H236.6V421.319C236.6 414.857 240.071 410.683 245.441 410.683C250.525 410.683 252.6 413 252.6 418.683V437.773H256.063V418.347C256.063 411.16 252.808 407.668 246.115 407.668Z" stroke="#100F0D" stroke-width="0.666667" stroke-miterlimit="10"/>
<path d="M275.016 411.075V408.229H267.556V399.479H264.092V408.229H258.877V411.075H264.092V431.639C264.092 436.334 265.961 437.998 271.237 437.998C272.161 437.998 273.746 437.883 274.748 437.772L275.016 437.743V435.024L271.629 435.208C268.356 435.208 267.556 434.519 267.556 431.696V411.075H275.016Z" fill="#100F0D"/>
<path d="M275.016 411.075V408.229H267.556V399.479H264.092V408.229H258.877V411.075H264.092V431.639C264.092 436.334 265.961 437.998 271.237 437.998C272.161 437.998 273.746 437.883 274.748 437.772L275.016 437.743V435.024L271.629 435.208C268.356 435.208 267.556 434.519 267.556 431.696V411.075H275.016Z" stroke="#100F0D" stroke-width="0.666667" stroke-miterlimit="10"/>
<path d="M360.115 164.299C355.544 164.299 351.825 160.58 351.825 156.01C351.825 151.439 355.544 147.716 360.115 147.716C364.687 147.716 368.404 151.439 368.404 156.01C368.404 160.58 364.687 164.299 360.115 164.299Z" fill="#D91E25"/>
<path d="M351.556 214.527C346.985 214.527 343.267 210.808 343.267 206.238C343.267 201.667 346.985 197.946 351.556 197.946C356.127 197.946 359.845 201.667 359.845 206.238C359.845 210.808 356.127 214.527 351.556 214.527Z" fill="#D91E25"/>
<path d="M332.076 260.804C327.5 260.804 323.781 257.086 323.781 252.515C323.781 247.944 327.5 244.226 332.076 244.226C336.647 244.226 340.365 247.944 340.365 252.515C340.365 257.086 336.647 260.804 332.076 260.804Z" fill="#D91E25"/>
<path d="M242.241 338.539C188.127 302.215 159.437 271.766 143.222 233.447C127.629 196.635 123.674 153.268 121.507 81.1242L121.26 73.0123L129.288 73.5616C137.177 74.0749 144.126 74.3242 150.536 74.3242C164.963 74.3216 177.012 73.0496 188.446 70.3256C204.593 66.4789 220.803 59.4389 242.652 46.7842L246.895 44.3216L251.096 46.7723C272.98 59.4429 289.195 66.4856 305.327 70.3256C316.621 73.0162 329.081 74.3242 343.416 74.3242C349.755 74.3242 356.436 74.0829 364.449 73.5642L365.517 73.4949L246.684 256.531L240.439 247.356L181.203 160.936L199.195 160.978L246.34 229.8L337.315 89.7149L324.403 88.4509C316.324 87.6602 308.969 86.4576 301.923 84.7816C286.18 81.0309 270.397 74.4909 250.741 63.5763L246.915 61.4496L243.088 63.5722C223.376 74.4936 207.572 81.0336 191.851 84.7816C179.385 87.7496 166.365 89.1309 150.891 89.1309C148.929 89.1309 146.925 89.1082 144.892 89.0642L136.546 88.8922L136.843 97.2336C138.872 154.819 142.791 194.639 156.823 227.754C170.88 260.984 196.453 288.815 242.339 320.807L246.848 323.946L251.352 320.815C267.109 309.867 280.273 299.51 291.507 289.22L301.229 300.483C287.721 312.71 271.429 325.18 251.512 338.55L246.884 341.636L242.241 338.539Z" fill="#100F0D"/>
<path d="M373.753 399.676H374.273C374.88 399.676 375.372 399.474 375.372 398.981C375.372 398.548 375.055 398.259 374.36 398.259C374.071 398.259 373.868 398.288 373.753 398.316V399.676ZM373.724 402.364H372.625V397.623C373.059 397.536 373.667 397.479 374.447 397.479C375.343 397.479 375.748 397.623 376.095 397.826C376.355 398.027 376.557 398.403 376.557 398.865C376.557 399.386 376.152 399.791 375.573 399.964V400.022C376.037 400.196 376.296 400.543 376.441 401.179C376.585 401.902 376.672 402.191 376.788 402.364H375.604C375.459 402.191 375.372 401.758 375.227 401.208C375.14 400.687 374.851 400.456 374.244 400.456H373.724V402.364ZM370.804 399.877C370.804 401.988 372.365 403.665 374.504 403.665C376.585 403.665 378.117 401.988 378.117 399.907C378.117 397.796 376.585 396.091 374.476 396.091C372.365 396.091 370.804 397.796 370.804 399.877ZM379.333 399.877C379.333 402.567 377.223 404.677 374.476 404.677C371.759 404.677 369.589 402.567 369.589 399.877C369.589 397.247 371.759 395.136 374.476 395.136C377.223 395.136 379.333 397.247 379.333 399.877Z" fill="#100F0D"/>
</svg>
