<?xml version="1.0" encoding="UTF-8" standalone="no"?>
<svg
   xmlns:dc="http://purl.org/dc/elements/1.1/"
   xmlns:cc="http://creativecommons.org/ns#"
   xmlns:rdf="http://www.w3.org/1999/02/22-rdf-syntax-ns#"
   xmlns:svg="http://www.w3.org/2000/svg"
   xmlns="http://www.w3.org/2000/svg"
   viewBox="0 0 754.01331 164.29333"
   height="164.29333"
   width="754.01331"
   xml:space="preserve"
   id="svg2"
   version="1.1"><metadata
     id="metadata8"><rdf:RDF><cc:Work
         rdf:about=""><dc:format>image/svg+xml</dc:format><dc:type
           rdf:resource="http://purl.org/dc/dcmitype/StillImage" /></cc:Work></rdf:RDF></metadata><defs
     id="defs6" /><g
     transform="matrix(1.3333333,0,0,-1.3333333,0,164.29333)"
     id="g10"><g
       transform="scale(0.1)"
       id="g12"><path
         id="path14"
         style="fill:#d91e25;fill-opacity:1;fill-rule:nonzero;stroke:none"
         d="m 4403.93,323.211 h -64.4 L 4145.8,796.176 h 65.22 l 161.13,-391.434 161.53,391.434 h 68.49 L 4403.93,323.211" /><path
         id="path16"
         style="fill:#d91e25;fill-opacity:1;fill-rule:nonzero;stroke:none"
         d="m 4812.81,373.75 c 51.36,-2.449 94.57,14.68 130.44,52.992 36.68,38.317 53.8,82.348 52.99,133.707 -1.64,48.91 -19.56,90.492 -52.99,125.539 -33.42,35.059 -73.37,52.176 -120.67,52.176 -49.72,0.816 -91.3,-17.117 -126.35,-52.176 -35.05,-35.047 -52.18,-76.629 -52.99,-126.355 -0.82,-48.934 14.67,-92.125 48.09,-128.805 33.44,-36.707 73.39,-55.441 121.48,-57.078 z m 172.02,8.145 c -48.09,-48.09 -105.99,-71.731 -172.84,-69.278 -64.4,1.606 -119.85,26.086 -164.67,73.363 -44.85,47.274 -66.85,103.532 -66.85,168.75 0,67.672 24.45,126.356 72.54,174.461 48.12,48.922 105.99,72.559 172.84,70.122 64.4,-2.454 119.85,-26.907 164.7,-75.008 44.82,-47.278 67.64,-103.535 67.64,-168.754 0,-66.856 -24.45,-124.723 -73.36,-173.656" /><path
         id="path18"
         style="fill:#d91e25;fill-opacity:1;fill-rule:nonzero;stroke:none"
         d="m 5464.17,431.645 c 33.42,36.679 49.73,79.054 48.91,128.804 -0.82,48.91 -18.74,90.492 -53.81,125.539 -34.23,35.059 -75.81,52.992 -125.54,52.992 -47.27,0 -88.04,-17.128 -121.48,-52.175 -33.41,-35.047 -51.34,-76.629 -52.16,-125.539 -1.63,-51.36 15.48,-96.207 52.16,-134.524 36.71,-37.496 79.9,-55.441 130.44,-52.992 48.12,2.453 88.07,21.188 121.48,57.895 z m -366.85,127.988 v 392.121 h 61.14 V 716.965 c 45.65,52.992 102.73,79.894 171.19,82.348 66.85,2.437 124.75,-20.383 172.84,-69.305 48.9,-48.922 73.36,-106.789 73.36,-174.457 0,-65.223 -22.82,-121.481 -67.65,-168.754 -44.85,-47.277 -100.29,-71.758 -164.69,-74.18 -66.85,-2.453 -124.72,21.188 -174.45,70.094 -49.73,48.934 -73.37,106.801 -71.74,173.656 v 3.266" /><path
         id="path20"
         style="fill:#100f0d;fill-opacity:1;fill-rule:nonzero;stroke:none"
         d="m 1557.81,973.223 c -22.77,0 -38.07,-13.825 -38.07,-34.399 0,-20.804 15.65,-35.328 38.07,-35.328 21.53,0 37.15,14.856 37.15,35.328 0,20.254 -15.27,34.399 -37.15,34.399" /><path
         id="path22"
         style="fill:#100f0d;fill-opacity:1;fill-rule:nonzero;stroke:none"
         d="m 1528.95,318.961 h 56.82 v 484.867 h -56.82 V 318.961" /><path
         id="path24"
         style="fill:#100f0d;fill-opacity:1;fill-rule:nonzero;stroke:none"
         d="m 1897.46,813.047 c -71.99,0 -125.87,-30.02 -157.07,-87.137 v 77.918 h -55.91 V 318.961 h 56.83 v 270.055 c 0,106.035 56.96,174.558 145.1,174.558 83.45,0 117.48,-38.047 117.48,-131.293 v -313.32 h 56.83 v 318.836 c 0,117.93 -53.41,175.25 -163.26,175.25" /><path
         id="path26"
         style="fill:#100f0d;fill-opacity:1;fill-rule:nonzero;stroke:none"
         d="m 2385.08,581.93 -102.2,15.648 c -51.28,7.492 -72.2,28.219 -72.2,71.512 0,67.605 37.64,99.094 118.43,99.094 105.59,0 118.86,-53.262 123.01,-103.18 l 0.38,-4.527 h 52.75 v 4.937 c 0,97.969 -59.26,147.633 -176.14,147.633 -116.28,0 -175.25,-49.051 -175.25,-145.793 0,-69.895 37.92,-106.598 122.93,-119.02 l 102.17,-15.644 c 55.42,-8.758 82.36,-34.563 82.36,-78.891 0,-66.66 -42.94,-99.078 -131.29,-99.078 -111.12,0 -130.99,53.133 -135.93,110.555 l -0.39,4.515 h -52.74 v -4.937 c 0,-102.859 63.29,-155.008 188.14,-155.008 156.25,0 189.03,79.281 189.03,145.793 0,72.25 -43.54,113.59 -133.06,126.391" /><path
         id="path28"
         style="fill:#100f0d;fill-opacity:1;fill-rule:nonzero;stroke:none"
         d="m 2688.38,947.441 h -56.85 V 803.828 h -85.59 v -46.687 h 85.59 V 419.648 c 0,-77.05 30.68,-104.363 117.26,-104.363 15.16,0 41.2,1.875 57.62,3.699 l 4.39,0.485 v 44.621 l -55.58,-3.035 c -53.72,0 -66.84,11.32 -66.84,57.648 v 338.438 h 122.42 v 46.687 h -122.42 v 143.613" /><path
         id="path30"
         style="fill:#100f0d;fill-opacity:1;fill-rule:nonzero;stroke:none"
         d="m 3200.36,582.504 v -45.027 c 0,-110.516 -60.93,-181.938 -155.24,-181.938 -79.94,0 -125.78,38.121 -125.78,104.594 0,52.199 40.15,83.293 116.12,89.902 l 71.71,6.434 c 44.33,3.215 75.57,11.957 93.19,26.035 z m 56.82,-137.102 v 212.661 c 0,70.707 -32,154.984 -184.44,154.984 -152.44,0 -184.44,-84.277 -184.44,-154.984 v -4.942 h 53.73 l 0.32,4.598 c 5.23,74.101 46.66,108.625 130.39,108.625 84.68,0 127.62,-36.438 127.62,-108.281 0,-34.399 -13.57,-50.899 -93.99,-57.692 l -80.97,-7.348 c -134.62,-10.953 -162.88,-79.312 -162.88,-134.726 0,-93.02 64.13,-148.551 171.57,-148.551 79.64,0 138.24,31.996 167.57,90.719 1.56,-43.277 7.94,-60.164 20.71,-79.309 l 1.47,-2.195 h 51.77 l -4.38,7.441 c -8.93,15.2 -14.05,58.582 -14.05,119" /><path
         id="path32"
         style="fill:#100f0d;fill-opacity:1;fill-rule:nonzero;stroke:none"
         d="m 3568.84,813.047 c -72.01,0 -125.88,-30.02 -157.07,-87.121 v 77.902 h -55.91 V 318.961 h 56.82 v 270.055 c 0,106.035 56.97,174.558 145.11,174.558 83.44,0 117.48,-38.047 117.48,-131.293 v -313.32 h 56.82 v 318.836 c 0,117.93 -53.4,175.25 -163.25,175.25" /><path
         id="path34"
         style="fill:#100f0d;fill-opacity:1;fill-rule:nonzero;stroke:none"
         d="m 4043.16,757.141 v 46.687 h -122.43 v 143.613 h -56.84 V 803.828 h -85.59 v -46.687 h 85.59 V 419.648 c 0,-77.05 30.68,-104.363 117.25,-104.363 15.16,0 41.2,1.875 57.62,3.699 l 4.4,0.485 v 44.621 l -55.59,-3.035 c -53.72,0 -66.84,11.32 -66.84,57.648 v 338.438 h 122.43" /><path
         id="path36"
         style="fill:#d91e25;fill-opacity:1;fill-rule:nonzero;stroke:none"
         d="m 969.488,714.523 c -16.875,0 -30.597,13.723 -30.597,30.594 0,16.875 13.722,30.61 30.597,30.61 16.871,0 30.592,-13.735 30.592,-30.61 0,-16.871 -13.721,-30.594 -30.592,-30.594" /><path
         id="path38"
         style="fill:#d91e25;fill-opacity:1;fill-rule:nonzero;stroke:none"
         d="m 937.895,529.133 c -16.872,0 -30.594,13.722 -30.594,30.594 0,16.871 13.722,30.609 30.594,30.609 16.875,0 30.597,-13.738 30.597,-30.609 0,-16.872 -13.722,-30.594 -30.597,-30.594" /><path
         id="path40"
         style="fill:#d91e25;fill-opacity:1;fill-rule:nonzero;stroke:none"
         d="m 865.996,358.32 c -16.891,0 -30.613,13.727 -30.613,30.598 0,16.871 13.722,30.598 30.613,30.598 16.871,0 30.598,-13.727 30.598,-30.598 0,-16.871 -13.727,-30.598 -30.598,-30.598" /><path
         id="path42"
         style="fill:#100f0d;fill-opacity:1;fill-rule:nonzero;stroke:none"
         d="M 534.418,71.4102 C 334.688,205.48 228.793,317.867 168.945,459.297 111.391,595.172 96.793,755.238 88.793,1021.52 l -0.9102,29.94 29.6292,-2.03 c 29.121,-1.89 54.769,-2.81 78.426,-2.81 53.25,0.01 97.722,4.7 139.921,14.76 59.602,14.19 119.43,40.17 200.075,86.89 l 15.66,9.09 15.508,-9.05 c 80.773,-46.76 140.621,-72.76 200.168,-86.93 41.683,-9.94 87.675,-14.76 140.585,-14.76 23.391,0 48.055,0.89 77.629,2.8 l 3.942,0.26 -438.61,-675.586 -23.05,33.867 -218.633,318.973 66.406,-0.153 174.008,-254.023 335.785,517.055 -47.656,4.664 c -29.821,2.918 -56.969,7.353 -82.977,13.543 -58.101,13.84 -116.359,37.98 -188.906,78.27 l -14.125,7.84 -14.121,-7.83 c -72.758,-40.31 -131.09,-64.45 -189.117,-78.28 -46.008,-10.957 -94.067,-16.055 -151.184,-16.055 -7.242,0 -14.633,0.086 -22.141,0.246 l -30.804,0.633 1.097,-30.785 C 152.887,749.512 167.352,602.535 219.141,480.313 271.027,357.66 365.414,254.938 534.777,136.859 l 16.645,-11.589 16.625,11.558 c 58.16,40.402 106.75,78.633 148.207,116.613 l 35.887,-41.57 C 702.281,166.738 642.152,120.711 568.637,71.3711 L 551.555,59.9688 534.418,71.4102" /><path
         id="path44"
         style="fill:#100f0d;fill-opacity:1;fill-rule:nonzero;stroke:none"
         d="m 5573.43,900.355 h 5.87 c 6.84,0 12.39,2.286 12.39,7.833 0,4.882 -3.58,8.144 -11.42,8.144 -3.25,0 -5.53,-0.324 -6.84,-0.644 z m -0.32,-30.324 h -12.4 v 53.477 c 4.9,0.976 11.74,1.633 20.55,1.633 10.11,0 14.67,-1.633 18.58,-3.918 2.93,-2.274 5.22,-6.524 5.22,-11.739 0,-5.867 -4.56,-10.429 -11.08,-12.39 v -0.645 c 5.21,-1.965 8.15,-5.871 9.78,-13.047 1.63,-8.156 2.61,-11.418 3.91,-13.371 h -13.37 c -1.63,1.953 -2.61,6.848 -4.24,13.047 -0.98,5.871 -4.24,8.477 -11.08,8.477 h -5.87 z m -32.94,28.047 c 0,-23.808 17.61,-42.723 41.74,-42.723 23.48,0 40.76,18.915 40.76,42.391 0,23.809 -17.28,43.051 -41.09,43.051 -23.8,0 -41.41,-19.242 -41.41,-42.719 z m 96.2,0 c 0,-30.332 -23.81,-54.129 -54.79,-54.129 -30.65,0 -55.1,23.797 -55.1,54.129 0,29.668 24.45,53.477 55.1,53.477 30.98,0 54.79,-23.809 54.79,-53.477" /></g></g></svg>